<?xml version="1.0" standalone="no"?>
<!DOCTYPE svg PUBLIC "-//W3C//DTD SVG 20010904//EN"
 "http://www.w3.org/TR/2001/REC-SVG-20010904/DTD/svg10.dtd">
<svg version="1.0" xmlns="http://www.w3.org/2000/svg"
 width="1024.000000pt" height="1024.000000pt" viewBox="0 0 1024.000000 1024.000000"
 preserveAspectRatio="xMidYMid meet">

<g transform="translate(0.000000,1024.000000) scale(0.100000,-0.100000)"
fill="#000000" stroke="none">
<path d="M7970 8948 c-74 -450 -132 -579 -311 -686 -49 -30 -223 -85 -336
-108 l-92 -18 137 -32 c230 -54 333 -102 413 -193 82 -92 117 -188 170 -458
18 -95 36 -169 40 -165 4 4 12 51 18 104 30 244 89 410 180 510 89 97 194 146
436 203 147 34 147 34 30 55 -221 41 -368 102 -453 187 -98 98 -137 205 -187
507 -14 88 -27 162 -29 164 -2 2 -9 -30 -16 -70z"/>
<path d="M8721 7515 c-61 -293 -75 -330 -150 -406 -69 -69 -137 -101 -298
-143 l-124 -32 125 -31 c148 -37 218 -67 276 -119 81 -73 108 -136 149 -340
l28 -139 12 75 c47 294 134 428 325 497 23 8 88 25 144 37 l104 22 -126 31
c-200 50 -296 104 -352 198 -37 63 -52 116 -77 270 l-24 140 -12 -60z"/>
<path d="M3356 7269 c-267 -35 -497 -180 -625 -396 -22 -37 -135 -307 -251
-600 -115 -293 -215 -544 -222 -558 -14 -30 -48 -33 -72 -6 -10 11 -33 64 -52
118 -24 71 -42 106 -65 126 l-30 28 -243 -3 -243 -3 -49 -30 c-30 -19 -60 -49
-79 -79 -28 -46 -30 -57 -33 -160 -2 -61 1 -126 7 -147 17 -57 63 -112 122
-144 l54 -30 260 -5 c255 -5 260 -5 263 -26 2 -16 -20 -41 -92 -103 -285 -245
-446 -500 -518 -822 -23 -104 -23 -107 -23 -819 l0 -715 28 -60 c15 -33 49
-82 75 -108 l47 -48 0 -317 0 -317 26 -56 c31 -66 88 -127 142 -153 69 -32
157 -38 510 -34 407 5 418 7 507 96 88 88 90 100 90 449 l0 293 2210 0 2210 0
0 -290 c0 -330 5 -357 82 -444 48 -56 93 -80 173 -95 72 -13 631 -14 732 -1
125 16 217 82 267 189 20 43 21 64 24 371 l3 325 44 45 c24 25 57 72 72 105
l28 60 0 685 c0 757 0 751 -67 963 -79 251 -252 502 -474 686 -97 80 -122 112
-101 129 7 6 116 12 262 14 275 4 288 6 360 69 63 55 85 116 85 234 0 84 -4
108 -24 151 -27 58 -94 120 -145 134 -20 5 -135 10 -256 10 -280 0 -283 -2
-329 -151 -42 -133 -89 -172 -124 -102 -11 21 -110 270 -221 553 -112 283
-221 546 -243 584 -48 82 -162 204 -238 256 -126 85 -261 132 -431 150 -126
13 -3332 12 -3433 -1z m3512 -457 c83 -30 127 -58 182 -118 54 -58 37 -20 256
-579 242 -618 235 -593 196 -637 -14 -17 -141 -18 -2408 -18 l-2393 0 -21 27
c-15 19 -20 36 -16 55 7 33 80 226 279 727 141 358 155 388 200 437 53 58 141
108 217 123 25 5 783 8 1745 8 l1700 -2 63 -23z m-4172 -2252 c434 -48 451
-51 512 -81 84 -41 162 -122 208 -215 31 -63 37 -84 37 -141 0 -82 -17 -127
-68 -176 -68 -66 -80 -67 -616 -67 -459 0 -479 1 -531 21 -87 33 -149 85 -183
154 -30 59 -30 62 -30 225 0 184 7 218 58 270 39 40 80 59 128 60 20 0 238
-22 485 -50z m5379 31 c49 -22 91 -69 106 -119 7 -23 9 -101 7 -207 -3 -164
-4 -172 -30 -216 -35 -59 -80 -99 -154 -135 l-59 -29 -515 0 -515 0 -48 28
c-26 15 -60 47 -75 69 -25 38 -27 50 -27 137 0 85 3 102 29 154 58 118 183
222 291 243 62 11 833 91 895 92 34 1 70 -5 95 -17z"/>
</g>
</svg>
