<?xml version="1.0" standalone="no"?>
<!DOCTYPE svg PUBLIC "-//W3C//DTD SVG 20010904//EN"
 "http://www.w3.org/TR/2001/REC-SVG-20010904/DTD/svg10.dtd">
<svg version="1.0" xmlns="http://www.w3.org/2000/svg"
 width="1024.000000pt" height="1024.000000pt" viewBox="0 0 1024.000000 1024.000000"
 preserveAspectRatio="xMidYMid meet">

<g transform="translate(0.000000,1024.000000) scale(0.100000,-0.100000)"
fill="#000000" stroke="none">
<path d="M4650 8417 c-38 -21 -809 -506 -856 -538 -23 -15 -47 -42 -54 -59
-37 -88 56 -200 143 -173 18 5 188 106 377 225 190 118 385 239 433 268 134
82 156 110 144 188 -9 55 -54 94 -114 99 -30 2 -57 -1 -73 -10z"/>
<path d="M7115 8350 c-233 -49 -419 -202 -509 -418 -55 -130 -101 -394 -93
-534 3 -69 11 -100 35 -151 52 -112 136 -188 250 -226 59 -20 82 -21 625 -21
528 0 567 1 619 19 114 39 207 125 261 239 l31 67 7 289 c9 369 0 416 -96 544
-79 105 -192 173 -333 198 -55 9 -167 13 -392 13 -269 0 -328 -3 -405 -19z"/>
<path d="M5370 8075 c-152 -48 -230 -240 -157 -381 108 -210 412 -192 494 29
6 18 11 59 11 92 0 70 -12 108 -54 167 -60 85 -191 126 -294 93z"/>
<path d="M1870 7609 c-183 -27 -337 -142 -469 -351 -96 -150 -112 -228 -62
-290 18 -22 27 -23 178 -28 181 -6 229 -21 273 -86 23 -35 25 -46 28 -200 l4
-164 371 0 370 0 -6 51 c-14 120 23 253 93 333 64 72 192 133 338 159 l67 12
-3 285 -2 285 -563 1 c-309 1 -587 -2 -617 -7z"/>
<path d="M3260 7329 l0 -291 120 3 c173 6 164 -8 168 262 2 138 -1 225 -8 250
-16 53 -52 67 -180 67 l-100 0 0 -291z"/>
<path d="M3904 7446 c-49 -22 -74 -61 -74 -118 0 -43 5 -55 33 -83 24 -24 46
-35 78 -40 24 -3 256 -5 514 -3 442 3 472 4 498 22 82 55 73 177 -16 219 -31
15 -87 17 -519 17 -382 -1 -489 -4 -514 -14z"/>
<path d="M3801 7002 c-77 -42 -91 -138 -29 -197 18 -18 123 -87 233 -155 110
-68 259 -160 330 -205 72 -45 172 -107 223 -139 112 -70 161 -81 217 -46 64
40 85 122 44 174 -11 14 -134 96 -272 182 -139 86 -338 210 -444 276 -210 131
-243 143 -302 110z"/>
<path d="M2950 6801 c-50 -16 -106 -47 -152 -84 -15 -12 -15 -20 -2 -95 31
-182 95 -314 204 -422 114 -114 250 -170 300 -125 31 28 24 54 -41 145 -107
149 -166 296 -194 485 -8 55 -15 103 -15 108 0 12 -41 7 -100 -12z"/>
<path d="M6465 6795 c-288 -54 -476 -213 -670 -563 -239 -433 -426 -1151 -490
-1877 -20 -232 -19 -330 4 -380 36 -79 52 -84 336 -110 94 -8 287 -29 430 -45
308 -36 823 -91 1164 -125 222 -22 416 -46 497 -61 l32 -6 -5 144 c-6 149 8
390 33 588 47 372 151 903 241 1234 65 243 208 564 315 708 66 89 99 106 129
67 40 -53 35 -90 -28 -234 -147 -331 -284 -791 -362 -1215 -86 -465 -121 -756
-121 -1003 0 -193 14 -277 65 -407 44 -110 44 -111 -112 -121 -287 -19 -593
-94 -838 -204 -238 -107 -453 -315 -514 -497 -50 -149 -62 -299 -40 -496 21
-191 77 -349 138 -385 15 -9 46 -19 69 -23 38 -6 65 5 354 139 172 80 412 188
533 242 389 171 639 287 681 316 91 62 142 148 163 279 34 209 31 385 -7 458
l-20 40 35 52 c48 71 79 142 97 220 8 36 36 247 61 470 48 422 63 555 115 980
17 140 42 345 55 455 55 458 67 590 62 675 -19 275 -177 520 -412 635 -136 67
-98 65 -1055 64 -672 -1 -881 -4 -935 -14z"/>
<path d="M1811 6178 c-16 -136 -51 -309 -111 -548 -56 -225 -155 -659 -198
-870 -59 -285 -57 -246 -57 -1305 l0 -980 22 -40 c47 -87 123 -132 252 -146
51 -6 382 -8 796 -7 707 3 710 3 751 25 65 35 68 42 44 115 -47 141 -110 526
-110 668 0 155 38 310 102 418 18 31 66 91 107 134 l74 78 -2 233 c-2 277 -10
339 -56 432 -63 127 -102 167 -592 601 -46 41 -80 82 -97 116 -25 50 -26 57
-26 244 0 106 -4 204 -10 218 -21 55 -27 56 -404 59 l-348 2 -29 33 c-32 36
-34 48 -17 121 l11 51 341 0 c252 0 348 4 366 13 43 21 61 74 62 184 2 118
-18 189 -63 228 l-31 25 -382 0 -383 0 -12 -102z"/>
<path d="M4140 5861 c-80 -25 -149 -81 -187 -154 -25 -49 -30 -176 -8 -234 23
-60 86 -128 150 -161 42 -22 63 -26 130 -26 67 0 88 4 130 26 133 70 193 213
149 354 -25 81 -108 165 -184 188 -56 17 -137 20 -180 7z"/>
<path d="M4755 3874 c-451 -36 -816 -126 -1032 -256 -77 -46 -184 -147 -232
-219 -50 -74 -81 -171 -81 -250 0 -80 35 -348 66 -498 43 -213 78 -295 162
-373 92 -86 109 -91 598 -168 358 -56 1103 -177 1658 -270 444 -74 526 -86
526 -76 0 2 -7 22 -15 45 -54 155 -97 551 -77 720 53 454 370 771 917 916 121
32 129 34 124 40 -6 6 -325 52 -489 70 -570 64 -1088 148 -1397 226 -297 75
-548 107 -728 93z m-785 -614 c91 -11 269 -34 395 -50 221 -29 481 -61 930
-116 116 -14 309 -38 430 -54 121 -16 249 -32 285 -36 90 -9 109 -18 126 -60
17 -40 11 -68 -18 -101 -45 -48 -37 -49 -608 31 -543 76 -1101 153 -1310 180
-375 49 -426 58 -459 78 -38 24 -63 74 -54 108 7 26 57 50 93 44 14 -2 99 -13
190 -24z"/>
</g>
</svg>
