<?xml version="1.0" standalone="no"?>
<!DOCTYPE svg PUBLIC "-//W3C//DTD SVG 20010904//EN"
 "http://www.w3.org/TR/2001/REC-SVG-20010904/DTD/svg10.dtd">
<svg version="1.0" xmlns="http://www.w3.org/2000/svg"
 width="1024.000000pt" height="1024.000000pt" viewBox="0 0 1024.000000 1024.000000"
 preserveAspectRatio="xMidYMid meet">

<g transform="translate(0.000000,1024.000000) scale(0.100000,-0.100000)"
fill="#000000" stroke="none">
<path d="M8539 8437 c-24 -13 -352 -252 -729 -533 -377 -280 -767 -570 -867
-643 -101 -74 -188 -140 -194 -148 -18 -21 -4 -43 143 -220 87 -105 139 -176
146 -201 21 -69 24 -126 13 -202 -21 -137 -94 -256 -195 -322 -169 -109 -364
-102 -504 18 -32 27 -569 652 -689 803 l-19 23 -135 -141 c-133 -140 -134
-141 -179 -141 -82 -1 -112 -24 -340 -259 -118 -123 -225 -239 -237 -259 -26
-42 -31 -114 -11 -159 14 -30 311 -404 604 -759 112 -136 194 -226 211 -233
46 -19 140 -31 172 -21 28 8 440 329 523 408 20 19 46 56 57 82 18 41 33 56
107 104 l87 56 111 -6 c98 -6 117 -4 156 13 43 19 478 359 510 398 11 14 16
56 20 178 l5 161 250 184 c138 101 453 330 700 509 758 549 796 577 825 610
47 53 56 149 22 233 -18 45 -146 233 -230 337 -64 79 -93 107 -134 127 -67 34
-138 35 -199 3z"/>
<path d="M3557 8400 c-68 -298 -99 -384 -165 -454 -74 -77 -149 -112 -347
-160 l-130 -33 136 -32 c211 -50 323 -113 384 -216 33 -58 89 -228 111 -340
l18 -89 32 129 c55 222 94 314 157 373 67 63 225 129 385 162 34 7 61 14 60
16 -2 1 -50 12 -107 24 -184 37 -312 100 -376 184 -49 65 -84 168 -143 421 -8
36 -10 37 -15 15z"/>
<path d="M5613 7865 c-46 -20 -131 -102 -155 -150 -25 -48 -27 -139 -4 -184
33 -63 1011 -1199 1054 -1224 101 -58 265 -8 339 105 23 34 28 52 27 102 0
119 42 62 -629 852 -392 462 -406 478 -450 498 -41 20 -138 20 -182 1z"/>
<path d="M2640 7451 c0 -40 -44 -207 -70 -269 -26 -61 -92 -125 -158 -155 -26
-11 -94 -33 -152 -48 -80 -20 -99 -28 -80 -32 14 -4 63 -16 110 -27 213 -51
270 -114 339 -379 l28 -105 12 64 c18 90 66 226 96 272 47 71 181 138 340 169
l60 12 -103 23 c-240 54 -312 123 -377 364 -14 52 -25 105 -25 118 0 12 -4 22
-10 22 -5 0 -10 -13 -10 -29z"/>
<path d="M4425 6759 c-80 -11 -217 -54 -285 -90 -180 -92 -329 -256 -399 -439
-91 -235 -87 -528 10 -823 92 -278 305 -612 544 -852 265 -266 554 -434 885
-516 82 -20 119 -23 275 -23 154 0 192 4 260 22 286 79 502 278 592 547 25 74
27 93 27 250 1 146 -2 184 -23 266 -13 53 -27 102 -31 109 -11 17 -281 -199
-274 -219 14 -44 15 -162 0 -230 -24 -115 -66 -193 -143 -270 -78 -76 -146
-113 -266 -143 -69 -17 -101 -20 -202 -15 -286 13 -576 157 -857 426 -275 262
-458 574 -524 891 -24 112 -24 283 -1 369 53 197 190 347 377 412 54 19 87 23
191 23 l126 1 113 123 c125 136 123 130 35 156 -119 35 -291 45 -430 25z"/>
<path d="M4490 6259 c-110 -22 -217 -107 -266 -213 -163 -356 155 -1010 655
-1346 85 -57 249 -134 341 -160 105 -30 257 -37 338 -16 152 39 255 151 269
295 6 51 5 54 -13 46 -34 -14 -137 -20 -203 -13 -36 4 -92 20 -127 37 -61 28
-71 40 -381 413 -539 648 -524 628 -548 713 -17 58 -17 173 1 233 7 25 5 25
-66 11z"/>
<path d="M1893 6006 c-411 -78 -659 -390 -725 -911 -16 -127 -16 -562 0 -715
30 -280 88 -555 172 -814 193 -594 552 -1091 1035 -1432 176 -125 455 -268
675 -347 157 -56 407 -120 592 -152 444 -75 868 -86 2393 -65 1399 19 1865 59
2165 183 247 102 398 259 446 465 33 139 3 349 -81 557 -268 665 -818 1255
-1575 1690 -118 68 -442 235 -455 235 -3 0 -5 -8 -5 -17 0 -35 -41 -178 -74
-259 l-33 -84 86 -47 c457 -248 858 -543 1149 -847 175 -182 338 -400 418
-558 49 -97 128 -303 149 -387 37 -151 1 -285 -104 -384 -168 -160 -483 -211
-1595 -257 -742 -31 -2204 -37 -2476 -11 -838 81 -1372 303 -1831 761 -521
520 -790 1248 -790 2140 0 343 26 500 106 660 115 229 286 333 519 317 105 -7
671 -169 1179 -337 265 -87 357 -114 351 -102 -26 59 -66 192 -81 271 l-17 92
-186 59 c-281 89 -537 162 -830 236 -238 59 -277 66 -385 70 -75 2 -147 -2
-192 -10z"/>
<path d="M2362 5070 c-169 -24 -284 -81 -399 -197 -104 -105 -163 -217 -194
-368 -27 -131 -22 -364 11 -530 68 -341 258 -732 495 -1020 93 -113 279 -297
370 -366 278 -213 612 -355 1030 -438 334 -67 631 -87 1170 -77 522 9 1015 27
1042 37 49 18 42 82 -9 97 -34 11 -50 12 -588 37 -613 29 -937 54 -1225 96
-596 87 -1025 257 -1351 537 -253 218 -506 601 -613 927 -63 195 -75 267 -76
460 0 198 11 246 76 344 85 128 219 194 394 195 55 0 125 -6 155 -13 141 -35
546 -195 1132 -450 21 -9 36 -20 35 -26 -3 -6 -234 -12 -653 -15 -667 -6 -667
-6 -751 -48 -152 -78 -151 -266 3 -576 202 -407 556 -761 917 -917 273 -117
587 -183 989 -209 102 -6 595 -10 1260 -9 1185 2 1158 0 1210 56 65 71 70 145
15 254 -55 111 -125 198 -296 370 -212 212 -424 379 -703 553 l-108 68 -107
-11 c-145 -15 -250 -14 -368 4 -384 58 -795 286 -1107 613 -78 83 -94 95 -165
123 -43 17 -195 83 -338 146 -369 164 -742 302 -915 339 -85 18 -259 25 -338
14z m2016 -1285 c17 -6 15 -60 -3 -94 -25 -48 -92 -99 -149 -111 -36 -8 -219
-11 -621 -8 -621 5 -632 6 -731 64 -56 33 -104 91 -104 125 0 14 2 28 4 30 6
5 1587 0 1604 -6z m669 -563 c17 -18 16 -36 -3 -75 -23 -45 -63 -86 -107 -108
-37 -19 -60 -20 -715 -17 -624 3 -681 5 -732 22 -129 43 -223 110 -218 155 l3
26 155 6 c85 3 481 5 879 5 586 -1 727 -4 738 -14z"/>
</g>
</svg>
