<?xml version="1.0" standalone="no"?>
<!DOCTYPE svg PUBLIC "-//W3C//DTD SVG 20010904//EN"
 "http://www.w3.org/TR/2001/REC-SVG-20010904/DTD/svg10.dtd">
<svg version="1.0" xmlns="http://www.w3.org/2000/svg"
 width="1024.000000pt" height="1024.000000pt" viewBox="0 0 1024.000000 1024.000000"
 preserveAspectRatio="xMidYMid meet">

<g transform="translate(0.000000,1024.000000) scale(0.100000,-0.100000)"
fill="#000000" stroke="none">
<path d="M9065 8860 c-26 -12 -220 -198 -548 -522 l-507 -503 0 -41 c0 -36 7
-50 47 -94 l46 -52 -89 -89 -90 -90 -76 75 c-110 108 -136 110 -246 20 l-50
-41 -168 -7 c-525 -21 -814 -38 -869 -52 -114 -28 -226 -117 -275 -219 -36
-75 -240 -753 -240 -798 0 -54 17 -86 59 -114 l35 -23 895 2 896 3 68 32 c112
53 217 173 241 274 11 48 46 378 46 434 0 67 -25 122 -83 183 l-41 42 89 90
89 89 42 -39 c53 -48 85 -58 129 -37 51 24 1010 980 1034 1031 27 55 28 134 2
184 -27 52 -228 248 -273 267 -50 20 -114 19 -163 -5z m-1436 -1814 c42 -41
42 -85 0 -120 -17 -14 -40 -26 -52 -26 -12 0 -195 0 -405 0 -449 1 -452 1
-452 89 0 32 40 77 73 84 12 3 198 4 414 3 l392 -1 30 -29z"/>
<path d="M1001 7407 c-13 -6 -34 -25 -45 -40 l-21 -28 -2 -2307 c-2 -1269 1
-2535 5 -2814 7 -493 8 -507 28 -535 12 -15 36 -37 55 -48 33 -20 52 -20 839
-20 763 0 807 1 835 18 62 38 69 57 77 227 9 189 30 357 64 510 200 899 862
1567 1749 1764 212 47 537 60 762 31 570 -74 1097 -368 1463 -815 71 -87 198
-282 254 -389 136 -264 226 -575 252 -871 8 -94 37 -149 91 -173 35 -16 99
-17 799 -15 l761 3 48 30 c75 47 94 91 105 256 5 74 12 274 16 444 21 997
-137 1670 -500 2121 -82 102 -177 190 -324 302 -106 80 -116 86 -126 68 -152
-258 -374 -421 -743 -542 -256 -85 -479 -117 -808 -116 -629 0 -1156 170
-1423 458 -124 133 -181 258 -189 414 -9 169 45 306 176 443 89 94 168 151
309 226 63 33 107 62 107 71 0 24 -35 35 -392 131 -634 169 -1053 268 -1623
384 -379 77 -396 82 -666 191 -697 281 -1178 450 -1666 583 -194 54 -228 58
-267 38z"/>
<path d="M6290 5926 c0 -191 1 -205 21 -230 l20 -26 294 0 294 0 20 26 c20 25
21 39 21 230 l0 204 -335 0 -335 0 0 -204z"/>
<path d="M6040 5824 c-330 -61 -577 -191 -654 -346 -32 -65 -35 -162 -7 -223
92 -199 414 -352 886 -420 654 -94 1359 60 1585 346 209 264 -72 555 -622 642
l-88 14 0 -77 c0 -129 -44 -209 -136 -251 -38 -17 -72 -19 -384 -19 l-342 -1
-51 29 c-35 20 -62 45 -81 76 -26 42 -31 60 -35 144 l-6 97 -65 -11z"/>
</g>
</svg>
