<?xml version="1.0" standalone="no"?>
<!DOCTYPE svg PUBLIC "-//W3C//DTD SVG 20010904//EN"
 "http://www.w3.org/TR/2001/REC-SVG-20010904/DTD/svg10.dtd">
<svg version="1.0" xmlns="http://www.w3.org/2000/svg"
 width="1024.000000pt" height="1024.000000pt" viewBox="0 0 1024.000000 1024.000000"
 preserveAspectRatio="xMidYMid meet">

<g transform="translate(0.000000,1024.000000) scale(0.100000,-0.100000)"
fill="#000000" stroke="none">
<path d="M9124 9419 c-16 -12 -410 -403 -876 -868 l-848 -846 -72 0 c-56 0
-81 -5 -108 -21 -58 -34 -1243 -949 -1276 -985 -17 -19 -121 -209 -232 -424
-335 -653 -332 -647 -332 -708 0 -65 28 -113 80 -139 32 -17 89 -18 753 -18
776 0 744 -2 796 54 31 33 36 89 22 241 -6 66 -17 179 -23 251 l-11 130 33 50
c19 27 172 245 340 484 397 564 398 565 406 606 3 19 4 53 0 74 l-6 39 727
733 c400 403 790 797 866 875 l140 141 5 54 4 54 -128 122 -128 122 -52 0
c-37 0 -59 -6 -80 -21z"/>
<path d="M1744 9276 c-208 -48 -378 -217 -415 -411 -15 -81 -8 -223 41 -764
44 -493 44 -494 108 -538 18 -12 63 -26 101 -33 65 -11 69 -13 75 -42 3 -17 6
-50 6 -73 l0 -43 -137 -4 c-126 -3 -143 -6 -189 -30 -63 -33 -118 -94 -153
-167 -42 -90 -37 -213 28 -596 147 -879 336 -1761 626 -2910 251 -998 270
-1070 302 -1135 35 -73 150 -187 225 -223 126 -60 6 -57 2078 -51 1042 2 1916
6 1942 9 87 7 182 73 222 154 56 110 152 462 183 667 20 138 10 218 -45 327
-44 90 -158 206 -257 265 -84 49 -244 104 -375 128 -141 26 -434 24 -655 -4
-598 -78 -1246 -230 -1809 -426 -86 -30 -156 -50 -156 -46 0 5 5 12 11 16 18
11 103 196 142 311 68 195 82 282 82 518 0 164 -4 229 -18 295 -60 286 -199
622 -730 1760 -91 195 -194 419 -230 498 -114 250 -199 378 -319 479 -107 91
-200 128 -400 158 -36 5 -37 7 -49 63 -6 31 -13 61 -16 67 -2 7 31 15 93 23
133 15 222 58 313 149 76 76 120 157 148 268 27 106 24 397 -5 570 -52 310
-116 493 -206 592 -132 146 -372 222 -562 179z"/>
<path d="M5747 5213 c-4 -3 -7 -28 -7 -55 0 -36 -4 -48 -15 -48 -35 0 -246
-75 -325 -116 -206 -106 -282 -239 -216 -380 100 -215 620 -376 1080 -335 554
51 887 274 772 516 -27 56 -97 128 -170 174 -68 43 -234 106 -333 127 l-82 17
-3 51 -3 51 -346 3 c-190 1 -348 -1 -352 -5z"/>
<path d="M7455 4796 c-60 -28 -87 -56 -114 -116 -71 -156 43 -330 215 -330
118 0 207 69 234 180 46 190 -156 350 -335 266z"/>
<path d="M7019 4225 c-104 -33 -201 -128 -236 -230 -10 -30 -17 -79 -16 -120
1 -136 71 -248 195 -316 60 -32 68 -34 163 -34 93 0 105 2 167 33 77 37 128
90 167 172 22 47 26 68 26 150 0 89 -2 99 -34 158 -67 123 -177 193 -311 199
-47 2 -92 -3 -121 -12z"/>
<path d="M2314 2021 c-17 -10 -40 -31 -52 -45 -41 -53 -45 -87 -39 -324 7
-251 13 -272 77 -304 33 -17 149 -18 1988 -18 2147 0 1996 -4 2039 58 16 24
18 53 18 289 0 250 -1 263 -21 290 -11 15 -36 38 -54 51 l-33 22 -1946 0
c-1888 0 -1947 -1 -1977 -19z"/>
</g>
</svg>
