<?xml version="1.0" standalone="no"?>
<!DOCTYPE svg PUBLIC "-//W3C//DTD SVG 20010904//EN"
 "http://www.w3.org/TR/2001/REC-SVG-20010904/DTD/svg10.dtd">
<svg version="1.0" xmlns="http://www.w3.org/2000/svg"
 width="1024.000000pt" height="1024.000000pt" viewBox="0 0 1024.000000 1024.000000"
 preserveAspectRatio="xMidYMid meet">

<g transform="translate(0.000000,1024.000000) scale(0.100000,-0.100000)"
fill="#000000" stroke="none">
<path d="M5360 8941 c-49 -15 -89 -41 -122 -81 -114 -133 -52 -345 116 -395
62 -19 80 -19 145 1 93 27 171 132 171 229 0 17 -7 55 -16 84 -35 118 -179
197 -294 162z"/>
<path d="M3950 8531 c-71 -23 -132 -75 -166 -141 -24 -48 -25 -163 -1 -207 86
-160 272 -200 399 -85 61 55 82 104 82 187 0 101 -48 180 -138 227 -43 22
-136 32 -176 19z"/>
<path d="M6930 8334 c-143 -39 -247 -154 -270 -302 -25 -149 59 -311 196 -380
233 -117 505 40 522 302 12 191 -103 346 -286 385 -67 14 -94 13 -162 -5z"/>
<path d="M5509 8150 c-88 -11 -208 -44 -272 -76 -122 -62 -245 -171 -322 -286
-21 -32 -39 -58 -40 -58 -2 0 -36 16 -76 35 -188 88 -360 86 -549 -6 -67 -33
-102 -59 -165 -123 -48 -48 -93 -105 -110 -139 l-30 -58 -70 7 c-236 25 -424
-37 -574 -189 -78 -80 -121 -146 -156 -241 l-26 -72 -82 -11 c-145 -20 -254
-70 -363 -166 -73 -65 -149 -184 -179 -280 -44 -139 -30 -306 33 -395 l21 -28
-80 -205 c-43 -112 -109 -284 -146 -383 -37 -98 -74 -181 -81 -184 -24 -9 -46
12 -62 59 -31 92 -67 136 -132 164 -47 19 -434 22 -489 4 -52 -18 -96 -55
-126 -107 -25 -42 -28 -59 -31 -152 -5 -127 6 -173 54 -228 71 -83 84 -87 376
-90 315 -4 319 -6 173 -107 -38 -27 -104 -77 -145 -112 -214 -179 -369 -468
-399 -741 -12 -111 -20 -1190 -12 -1687 6 -363 7 -382 28 -428 33 -70 113
-149 186 -183 l62 -29 455 0 455 0 52 27 c63 34 116 84 143 138 42 82 50 143
50 367 l0 213 2240 0 c1232 0 2241 -1 2241 -2 1 -2 4 -118 8 -258 l6 -255 29
-53 c37 -66 92 -116 165 -151 l56 -26 450 0 450 0 67 33 c82 40 149 111 178
190 22 57 22 59 21 917 -1 473 -4 937 -7 1030 -8 256 -34 368 -126 546 -98
190 -235 343 -410 460 -96 64 -110 77 -105 94 2 6 103 12 263 15 243 5 262 6
300 27 50 27 90 72 117 132 27 62 21 246 -11 307 -24 47 -71 90 -119 111 -42
17 -433 19 -484 2 -55 -19 -99 -58 -121 -107 -45 -103 -53 -117 -74 -120 -14
-2 -24 5 -33 24 -26 59 -271 703 -271 715 0 7 12 47 26 88 23 65 26 88 21 156
-13 218 -153 419 -362 521 -50 24 -98 44 -107 44 -12 0 -20 16 -28 56 -44 211
-160 368 -338 457 -50 25 -117 51 -148 57 -57 12 -214 9 -244 -4 -12 -5 -19
10 -32 76 -19 89 -75 214 -132 293 -61 85 -181 197 -269 253 -172 108 -365
148 -588 122z m-329 -1635 c151 -103 293 -147 480 -148 138 -1 218 14 329 64
l63 29 62 -56 c34 -30 96 -72 141 -94 115 -56 196 -73 335 -68 137 5 224 31
322 98 61 42 63 43 108 31 62 -16 119 -58 153 -112 15 -25 109 -263 209 -530
155 -414 181 -492 182 -542 1 -54 -2 -61 -32 -88 l-32 -29 -2391 0 -2391 0
-28 28 c-54 54 -51 79 33 310 265 727 301 820 331 862 38 52 83 86 137 100 38
11 40 10 119 -55 137 -111 245 -154 410 -162 129 -6 210 11 326 68 88 43 186
125 234 194 l30 43 47 -16 c36 -12 89 -16 208 -16 148 0 166 2 245 28 83 27
172 71 218 107 30 23 67 12 152 -46z m-2730 -2420 c671 -81 704 -86 759 -111
155 -70 261 -226 261 -385 0 -109 -37 -175 -125 -222 -40 -22 -44 -22 -610
-21 -628 2 -605 0 -680 65 -21 19 -49 56 -61 84 -22 47 -24 62 -24 246 0 190
1 196 26 248 30 59 76 100 131 118 42 13 36 13 323 -22z m5659 19 c64 -19 123
-76 145 -141 22 -64 23 -367 1 -439 -19 -63 -71 -125 -132 -155 l-48 -24 -570
0 c-565 0 -570 0 -610 22 -86 46 -125 114 -125 216 0 155 105 319 251 391 51
24 100 32 520 85 255 33 476 59 490 60 14 1 49 -6 78 -15z"/>
<path d="M2600 7639 c-167 -75 -215 -302 -92 -432 79 -84 225 -108 328 -55 94
49 143 131 144 238 0 155 -114 270 -270 270 -44 0 -80 -7 -110 -21z"/>
<path d="M7615 7351 c-75 -19 -131 -67 -164 -141 -68 -149 48 -324 214 -324
206 0 310 247 167 397 -53 56 -148 86 -217 68z"/>
</g>
</svg>
